<?xml version="1.0" encoding="utf-8"?>
<!-- Generator: Adobe Illustrator 27.0.0, SVG Export Plug-In . SVG Version: 6.00 Build 0)  -->
<svg version="1.1" id="Camada_1" xmlns="http://www.w3.org/2000/svg" xmlns:xlink="http://www.w3.org/1999/xlink" x="0px" y="0px"
	 viewBox="0 0 72.9 35.8" style="enable-background:new 0 0 72.9 35.8;" xml:space="preserve">
<g id="Camada_2_00000160912857111371113490000014154370178744907671_">
	<g id="Camada_1-2">
		<path fill="#FFFFFF" d="M17.3,29.1l1.2,0.9c-1.7,2.7-4.7,4.3-7.9,4.3c-5,0.2-9.2-3.6-9.4-8.6c0-0.3,0-0.6,0-0.8
			c-0.1-5.1,3.9-9.3,9-9.4c4.9,0,9,3.9,9,8.8c0,0.1,0,0.1,0,0.2c0,0.5-0.1,1.1-0.1,1.1H2.9c0.4,4,3.7,7.1,7.7,7.2
			C13.3,32.9,15.9,31.5,17.3,29.1z M2.8,24.2h14.9c0-4.1-3.3-7.4-7.4-7.4C6.1,16.8,2.8,20.1,2.8,24.2z"/>
		<path fill="#FFFFFF" d="M62.1,34.4c-5.2,0-9.4-4.2-9.4-9.4s4.2-9.4,9.4-9.4c5.2,0,9.4,4.2,9.4,9.4C71.5,30.2,67.3,34.4,62.1,34.4
			L62.1,34.4z M62.1,17.1c-4.4,0-8,3.5-8,7.8c0,4.4,3.5,8,7.8,8c4.4,0,8-3.5,8-7.8c0,0,0-0.1,0-0.1C69.9,20.6,66.4,17.1,62.1,17.1z"
			/>
		<polygon fill="#FFFFFF" points="47.7,19.6 50.4,16.6 49.3,15.6 46.6,18.5 		"/>
		<polygon fill="#FFFFFF" points="42.8,24.8 46.6,20.8 45.5,19.7 41.7,23.7 34.1,15.6 33.1,16.6 40.7,24.8 33,33 34.1,34.1 41.7,25.9 
			49.5,34.1 50.5,33 		"/>
		<rect x="24.7" y="15.5" fill="#FFFFFF" width="1.6" height="4"/>
		<path fill="#FFFFFF" d="M26.3,28.2v-7.1h-1.6v7.1c0,3.5,1.8,5.9,4.8,5.9v-1.5C27.4,32.6,26.3,30.8,26.3,28.2z"/>
	</g>
</g>
<g>
	<path stroke="#FFFFFF" stroke-width="0.25" fill="transparent" d="M11.4,4.1h1.4v6.1h-1.4V4.1z M15,6.6c0-0.4-0.1-0.7-0.3-0.9s-0.5-0.3-0.8-0.3c-0.3,0-0.6,0.1-0.8,0.3
		s-0.3,0.4-0.3,0.8l-0.1-1.3c0.2-0.4,0.4-0.7,0.7-0.9S14,4,14.3,4c0.4,0,0.8,0.1,1.1,0.3s0.5,0.5,0.7,0.9c0.2,0.4,0.2,0.8,0.2,1.4
		v3.6H15V6.6z M18.6,6.6c0-0.4-0.1-0.7-0.3-0.9s-0.5-0.3-0.8-0.3c-0.3,0-0.6,0.1-0.8,0.3s-0.3,0.5-0.3,0.9l-0.3-1.3
		c0.2-0.4,0.4-0.7,0.8-0.9s0.7-0.3,1-0.3c0.4,0,0.8,0.1,1.1,0.3s0.5,0.5,0.7,0.9S20,6,20,6.6v3.6h-1.4V6.6z"/>
	<path stroke="#FFFFFF" stroke-width="0.25" fill="transparent" d="M21.1,1.6h1.4v1.4h-1.4V1.6z M21.1,4.1h1.4v6.1h-1.4V4.1z"/>
	<path stroke="#FFFFFF" stroke-width="0.25" fill="transparent" d="M23.7,4.1h1.4v6.1h-1.4V4.1z M27.3,6.5c0-0.4-0.1-0.6-0.3-0.8s-0.5-0.3-0.8-0.3c-0.3,0-0.6,0.1-0.8,0.3
		s-0.3,0.4-0.3,0.8L25,5.1c0.2-0.4,0.4-0.7,0.7-0.9s0.6-0.3,1-0.3c0.6,0,1.2,0.2,1.5,0.6s0.5,1,0.5,1.8v3.7h-1.4V6.5z"/>
	<path stroke="#FFFFFF" stroke-width="0.25" fill="transparent" d="M29.9,1.6h1.4v8.5h-1.4V1.6z M33.5,6.5c0-0.4-0.1-0.6-0.3-0.8s-0.5-0.3-0.8-0.3c-0.3,0-0.6,0.1-0.8,0.3
		s-0.3,0.4-0.3,0.8l-0.1-1.3c0.2-0.4,0.4-0.6,0.7-0.8c0.3-0.2,0.6-0.3,1-0.3c0.6,0,1.2,0.2,1.5,0.6c0.4,0.4,0.5,1,0.5,1.8v3.7h-1.4
		V6.5z"/>
	<path stroke="#FFFFFF" stroke-width="0.25" fill="transparent" d="M36.4,9.8C36,9.5,35.9,9,35.9,8.4c0-0.6,0.2-1.1,0.5-1.4s0.9-0.5,1.6-0.5h1.6l0.1,1.1H38
		c-0.3,0-0.5,0.1-0.6,0.2s-0.2,0.3-0.2,0.5c0,0.3,0.1,0.4,0.3,0.6s0.5,0.2,0.8,0.2c0.4,0,0.8,0,1-0.1s0.3-0.2,0.3-0.5l0.1,0.9
		c-0.1,0.2-0.2,0.4-0.3,0.5s-0.4,0.2-0.6,0.3s-0.5,0.1-0.8,0.1C37.3,10.3,36.7,10.1,36.4,9.8z M39.6,6.3c0-0.3-0.1-0.6-0.3-0.8
		s-0.5-0.3-0.9-0.3c-0.2,0-0.5,0-0.7,0.1s-0.4,0.2-0.6,0.3l-0.9-0.8c0.2-0.3,0.6-0.5,0.9-0.6S37.9,4,38.4,4c0.5,0,1,0.1,1.3,0.3
		s0.6,0.4,0.8,0.8s0.3,0.7,0.3,1.2v3.9h-1.3V6.3z"/>
	<path stroke="#FFFFFF" stroke-width="0.25" fill="transparent" d="M46.2,8.4c0,0.1,0,0.3,0.1,0.3s0.2,0.1,0.3,0.1h0.4v1.3h-0.8c-0.5,0-0.8-0.1-1.1-0.4s-0.4-0.7-0.4-1.2V1.6h1.4
		V8.4z"/>
	<path stroke="#FFFFFF" stroke-width="0.25" fill="transparent" d="M48.8,9.9c-0.4-0.2-0.7-0.5-0.9-0.9s-0.3-0.9-0.3-1.4v-1c0-0.6,0.1-1,0.3-1.4s0.5-0.7,0.9-0.9S49.7,4,50.2,4
		s1,0.1,1.4,0.3s0.7,0.5,0.9,0.9s0.3,0.9,0.3,1.4v1c0,0.6-0.1,1-0.3,1.4S52,9.7,51.6,9.9s-0.8,0.3-1.4,0.3S49.2,10.2,48.8,9.9z
		 M51.1,8.6c0.2-0.2,0.3-0.5,0.3-1v-1c0-0.4-0.1-0.7-0.3-0.9s-0.5-0.3-0.9-0.3s-0.7,0.1-0.9,0.3S49,6.2,49,6.6v1
		c0,0.4,0.1,0.7,0.3,1s0.5,0.3,0.9,0.3C50.6,8.9,50.9,8.8,51.1,8.6z"/>
	<path stroke="#FFFFFF" stroke-width="0.25" fill="transparent" d="M53,11.3h0.5c0.1,0,0.2,0,0.3-0.1S54,11,54,10.8V4.1h1.4V11c0,0.5-0.1,0.9-0.4,1.2s-0.6,0.4-1.1,0.4H53V11.3z
		 M54,1.6h1.4v1.4H54V1.6z"/>
	<path stroke="#FFFFFF" stroke-width="0.25" fill="transparent" d="M56.8,9.8c-0.3-0.3-0.5-0.8-0.5-1.4c0-0.6,0.2-1.1,0.5-1.4s0.9-0.5,1.6-0.5H60l0.1,1.1h-1.7
		c-0.3,0-0.5,0.1-0.6,0.2s-0.2,0.3-0.2,0.5c0,0.3,0.1,0.4,0.3,0.6s0.5,0.2,0.8,0.2c0.4,0,0.8,0,1-0.1S60,8.7,60,8.5l0.1,0.9
		c-0.1,0.2-0.2,0.4-0.3,0.5s-0.4,0.2-0.6,0.3s-0.5,0.1-0.8,0.1C57.7,10.3,57.2,10.1,56.8,9.8z M60,6.3c0-0.3-0.1-0.6-0.3-0.8
		s-0.5-0.3-0.9-0.3c-0.2,0-0.5,0-0.7,0.1s-0.4,0.2-0.6,0.3l-0.9-0.8c0.2-0.3,0.6-0.5,0.9-0.6S58.4,4,58.8,4c0.5,0,1,0.1,1.3,0.3
		S60.8,4.7,61,5s0.3,0.7,0.3,1.2v3.9H60V6.3z"/>
</g>
</svg>
