<?xml version="1.0" encoding="utf-8"?>
<!-- Generator: Adobe Illustrator 27.0.0, SVG Export Plug-In . SVG Version: 6.00 Build 0)  -->
<svg version="1.1" id="Camada_1" xmlns="http://www.w3.org/2000/svg" xmlns:xlink="http://www.w3.org/1999/xlink" x="0px" y="0px"
	 viewBox="0 0 72.9 21.8" style="enable-background:new 0 0 72.9 21.8;" xml:space="preserve">
<style type="text/css">
	.st0{fill:#22B573;}
</style>
<g id="Camada_2_00000160912857111371113490000014154370178744907671_">
	<g id="Camada_1-2">
		<path class="st0" d="M17.3,15.1l1.2,0.9c-1.7,2.7-4.7,4.3-7.9,4.3c-5,0.2-9.2-3.6-9.4-8.6c0-0.3,0-0.6,0-0.8
			c-0.1-5.1,3.9-9.3,9-9.4c4.9,0,9,3.9,9,8.8c0,0.1,0,0.1,0,0.2c0,0.5-0.1,1.1-0.1,1.1H2.9c0.4,4,3.7,7.1,7.7,7.2
			C13.3,18.9,15.9,17.5,17.3,15.1z M2.8,10.2h14.9c0-4.1-3.3-7.4-7.4-7.4C6.1,2.8,2.8,6.1,2.8,10.2z"/>
		<path class="st0" d="M62.1,20.4c-5.2,0-9.4-4.2-9.4-9.4s4.2-9.4,9.4-9.4s9.4,4.2,9.4,9.4S67.3,20.4,62.1,20.4L62.1,20.4z
			 M62.1,3.1c-4.4,0-8,3.5-8,7.8c0,4.4,3.5,8,7.8,8c4.4,0,8-3.5,8-7.8V11C69.9,6.6,66.4,3.1,62.1,3.1z"/>
		<polygon class="st0" points="47.7,5.6 50.4,2.6 49.3,1.6 46.6,4.5 		"/>
		<polygon class="st0" points="42.8,10.8 46.6,6.8 45.5,5.7 41.7,9.7 34.1,1.6 33.1,2.6 40.7,10.8 33,19 34.1,20.1 41.7,11.9 
			49.5,20.1 50.5,19 		"/>
		<rect x="24.7" y="1.5" class="st0" width="1.6" height="4"/>
		<path class="st0" d="M26.3,14.2V7.1h-1.6v7.1c0,3.5,1.8,5.9,4.8,5.9v-1.5C27.4,18.6,26.3,16.8,26.3,14.2z"/>
	</g>
</g>
</svg>
